<svg width="2400" height="2400" viewBox="0 0 2400 2400" fill="none" xmlns="http://www.w3.org/2000/svg">
<mask id="mask0_7038_1683" style="mask-type:alpha" maskUnits="userSpaceOnUse" x="0" y="0" width="2400" height="2400">
<circle cx="1200" cy="1200" r="1200" fill="#D5FAFC"/>
</mask>
<g mask="url(#mask0_7038_1683)">
<circle cx="1200" cy="1200" r="1200" fill="#66429C"/>
<path d="M1489.25 2656.11L1459.72 4973.53L1442.25 6339.56L612.947 6323L775.171 2609.84L783.453 2184.74H1483.67L1489.25 2656.11Z" fill="#FFC727"/>
<path d="M1489.25 2656.11L1459.72 4973.53L903.906 2184.74H1483.67L1489.25 2656.11Z" fill="#263238"/>
<path d="M854.573 2184.02C857.634 2198.42 906.607 2425.65 957.381 2620.82C994.292 2763.42 1032.28 2888.73 1054.07 2901.7C1078.73 2916.28 1199.01 2969.58 1239.34 2986.32L1423.35 4746.31L1669.48 6330.38L2497.71 6287.17L1907.32 2682.58L1813.52 2184.02H854.573Z" fill="#FFC727"/>
<path d="M965.123 2298.53C965.123 2295.65 970.344 2294.93 970.344 2298.53C970.275 2391.73 974.962 2484.88 984.388 2577.61C988.169 2620.64 1022.92 2858.48 1097.46 2841.02C1109.88 2838.14 1115.46 2825.9 1118.35 2806.99C1117.89 2782.68 1114.57 2758.5 1108.44 2734.97C1100.16 2685.28 1093.5 2635.4 1089.18 2584.99C1080.47 2491.39 1081.5 2397.14 1092.24 2303.75C1092.24 2303.13 1092.48 2302.54 1092.92 2302.1C1093.36 2301.66 1093.96 2301.41 1094.58 2301.41C1095.2 2301.41 1095.79 2301.66 1096.23 2302.1C1096.67 2302.54 1096.92 2303.13 1096.92 2303.75C1094.8 2433.54 1102.45 2563.3 1119.79 2691.94C1128.97 2753.88 1160.12 2846.96 1095.48 2856.5C1030.84 2866.05 987.449 2710.12 978.987 2667.63C958.264 2545.73 953.604 2421.64 965.123 2298.53V2298.53Z" fill="#263238"/>
<path d="M775.17 2610.56L957.56 2622.26L1489.43 2656.11L1907.32 2682.58L1813.52 2184.02H854.572H782.552L775.17 2610.56Z" fill="#263238"/>
<path d="M1103.76 1161.34C1071.71 1292.41 813.881 1890.18 815.681 1935.55C815.681 1945.99 868.256 1943.29 873.478 1959.86C895.264 2026.48 690.907 2520.53 615.466 2538.54C393.285 2588.59 126.632 2625.32 130.593 2443.11C136.895 2157.19 611.685 1440.59 868.796 1190.33C1039.3 1026.12 1135.27 1031.88 1103.76 1161.34Z" fill="#A07767"/>
<path d="M1099.62 1278.19C1038.58 1441.86 953.42 1681.14 953.42 1681.14L773.371 1646.57L483.671 1590.76C483.671 1590.76 734.66 1263.25 965.304 1091.48C1082.88 1003.98 1132.21 1006.86 1145.35 1050.97C1159.4 1098.14 1130.59 1194.83 1099.62 1278.19Z" fill="#FFC727"/>
<path d="M1099.62 1278.19C1038.58 1441.86 953.421 1681.14 953.421 1681.14L773.371 1646.57L1145.17 1051.15C1159.4 1098.14 1130.59 1194.83 1099.62 1278.19Z" fill="#263238"/>
<path d="M966.204 1572.93C839.409 1543.59 710.814 1522.66 581.258 1510.27C579.458 1510.27 579.278 1512.79 581.258 1512.97C617.268 1517.12 797.318 1555.47 966.204 1575.99C967.285 1576.17 968.185 1573.47 966.204 1572.93Z" fill="#263238"/>
<path d="M1970.34 2556.54C1967.46 2559.78 721.875 2563.56 709.992 2550.78C694.148 2532.78 975.385 1183.3 1103.22 1016.58C1130.59 980.568 1220.79 971.025 1297.49 980.568C1317.5 982.844 1337.26 986.88 1356.55 992.631H1358.53C1374.11 997.167 1388.79 1004.35 1401.92 1013.88C1615.28 1184.2 1672 1350.03 1726.01 1488.31C1765.44 1590.76 1812.44 1765.22 1854.39 1944.01C1924.07 2239.83 1980.6 2545.56 1970.34 2556.54Z" fill="#FFC727"/>
<path opacity="0.1" d="M1283.63 1561.23H1506.53V1525.22H1283.63V1561.23Z" fill="#263238"/>
<path d="M1854.57 1945.27L1298.04 981.288C1318.04 983.564 1337.8 987.6 1357.09 993.351H1359.07C1374.65 997.887 1389.33 1005.07 1402.46 1014.6C1615.82 1184.92 1672.54 1350.75 1726.55 1489.03C1765.62 1592.02 1813.52 1766.48 1854.57 1945.27Z" fill="#263238"/>
<path d="M1427.31 1200.59C1509.23 1308.62 1961.34 1697.88 1977.36 1739.3C1993.39 1780.71 1852.95 1932.49 1854.93 1949.77C1862.85 2019.99 2007.25 2470.66 2067.03 2421.5C2145.71 2357.05 2508.15 1907.82 2455.57 1714.45C2403 1521.08 1598.36 1072.39 1471.42 1034.76C1344.49 997.132 1346.29 1094.72 1427.31 1200.59Z" fill="#A07767"/>
<path d="M1808.12 2538.54C1765.99 2502.53 1832.96 2473.36 1832.96 2473.36C1832.96 2473.36 1726.55 2491.36 1697.57 2437.35C1668.58 2383.33 1751.58 2352.91 1757.7 2350.57C1752.12 2351.47 1653.81 2365.69 1630.41 2308.25C1607 2250.82 1693.97 2230.47 1699.55 2229.21C1693.97 2229.21 1620.15 2216.61 1612.22 2168.9C1598.72 2086.79 1812.8 2102.64 1864.29 2059.43C1864.29 2059.43 1856.01 1951.4 1854.75 1949.05C1865.65 1974.09 1884.68 1994.71 1908.77 2007.57C1953.24 2025.58 1993.93 2038.36 2009.95 2062.67C2017.38 2073.27 2021.25 2085.96 2020.99 2098.91C2020.73 2111.86 2016.36 2124.39 2008.51 2134.69C2008.51 2134.69 2067.39 2134.69 2087.37 2179.52C2097.64 2202.38 2069.37 2239.11 2069.37 2239.11C2082.74 2239.75 2095.66 2244.09 2106.7 2251.66C2117.73 2259.23 2126.44 2269.72 2131.85 2281.97C2144.09 2314.56 2113.84 2346.42 2113.84 2346.42C2113.84 2346.42 2158.31 2369.29 2160.11 2406.74C2165.52 2483.44 1898.5 2616.86 1808.12 2538.54Z" fill="#A07767"/>
<path d="M2072.25 2240.56C2073.15 2240.56 2074.23 2241.46 2073.33 2242.36C1984.41 2316.58 1871.9 2356.61 1756.08 2355.25C1751.94 2355.25 1748.52 2350.75 1753.2 2350.75C1831.52 2348.04 1989.79 2290.79 2072.25 2240.56Z" fill="#263238"/>
<path d="M1691.44 2226.87C1804.69 2226.87 1906.6 2190.86 2005.99 2139.19C2007.43 2139.19 2008.15 2140.27 2007.25 2141.17C1965.48 2179.88 1899.22 2206.53 1845.21 2222.73C1795.6 2238.79 1742.65 2241.58 1691.62 2230.83C1689.46 2230.29 1689.1 2226.87 1691.44 2226.87Z" fill="#263238"/>
<path d="M2119.6 2347.86C2129.91 2339.49 2137.7 2328.44 2142.11 2315.92C2146.53 2303.4 2147.4 2289.91 2144.63 2276.92C2140.75 2264.58 2132.57 2254.04 2121.58 2247.22C2108.17 2240.79 2093.42 2237.64 2078.55 2238.03C2088.02 2227.46 2094.08 2214.28 2095.94 2200.21C2097.8 2186.15 2095.38 2171.84 2088.99 2159.17C2081.45 2148.16 2070.1 2140.34 2057.12 2137.21C2042.1 2134.05 2026.72 2132.9 2011.39 2133.79C2018.26 2127.01 2023.47 2118.74 2026.62 2109.62C2029.77 2100.5 2030.79 2090.78 2029.58 2081.21C2027.95 2070.64 2023.84 2060.61 2017.58 2051.93C2011.32 2043.26 2003.09 2036.2 1993.57 2031.34C1971.18 2020.33 1947.62 2011.88 1923.35 2006.13C1910.8 2002.83 1898.7 1997.99 1887.34 1991.73C1877.26 1985.6 1863.03 1973.72 1861.59 1961.66C1861.59 1959.14 1857.63 1960.76 1858.89 1961.66C1864.83 1969.4 1868.43 1978.4 1875.1 1985.6C1881.93 1992.93 1889.67 1999.34 1898.14 2004.69C1919.49 2015.7 1941.64 2025.09 1964.4 2032.78C1984.19 2040.64 2000.87 2054.73 2011.93 2072.93C2016.76 2082.5 2018.83 2093.23 2017.91 2103.92C2016.98 2114.6 2013.11 2124.82 2006.71 2133.43C2006.71 2133.43 2006.71 2135.77 2008.15 2135.77C2021.81 2137.21 2035.24 2140.36 2048.12 2145.13C2058.87 2149.31 2068.1 2156.66 2074.59 2166.19C2080.27 2177.84 2082.79 2190.76 2081.91 2203.69C2081.02 2216.61 2076.76 2229.07 2069.55 2239.83C2084.11 2242.77 2098.06 2248.19 2110.78 2255.86C2119.03 2262.18 2125.28 2270.74 2128.78 2280.53C2132.72 2291.71 2133.45 2303.77 2130.91 2315.34C2128.36 2326.92 2122.64 2337.56 2114.38 2346.06C2114.32 2346.2 2114.28 2346.36 2114.28 2346.51C2114.28 2346.67 2114.32 2346.82 2114.38 2346.96V2346.96C2114.38 2346.96 2128.6 2354.89 2129.33 2355.07C2130.05 2355.25 2129.33 2355.07 2129.33 2354.17C2126.19 2351.91 2122.94 2349.81 2119.6 2347.86V2347.86Z" fill="#263238"/>
<path d="M2141.75 1394.68L1795.51 1684.56C1795.51 1684.56 1552.44 1393.06 1448.38 1252.44C1347.73 1116.51 1243.12 924.212 1520.4 1036.38C1786.69 1142.97 2141.75 1394.68 2141.75 1394.68Z" fill="#FFC727"/>
<path d="M2052.8 1350.21C1949.54 1429.62 1851.56 1515.69 1759.5 1607.86C1758.06 1609.12 1759.5 1611.1 1761.48 1609.84C1787.77 1584.27 1931.81 1469.58 2054.78 1352.55C2056.41 1351.29 2054.25 1350.21 2052.8 1350.21Z" fill="#263238"/>
<path d="M1071.53 1040.35C1074.05 1066.58 1078.87 1092.55 1085.94 1117.95C1092.1 1143.36 1100.17 1168.28 1110.06 1192.49C1118.95 1216.36 1132.06 1238.44 1148.77 1257.66C1152.76 1261.82 1157.3 1265.4 1162.28 1268.29C1164.59 1269.64 1167.07 1270.67 1169.66 1271.35H1171.82H1175.06C1186.84 1267.82 1198.15 1262.86 1208.73 1256.58C1253.65 1230.2 1294.93 1198.06 1331.53 1160.98C1350.24 1142.59 1367.91 1123.18 1384.46 1102.82C1402.46 1082.84 1417.41 1061.59 1432.89 1040.17C1408.13 1087.32 1377.45 1131.13 1341.61 1170.52C1305.89 1210.77 1264.02 1245.11 1217.55 1272.25C1205.33 1279.32 1192.26 1284.82 1178.66 1288.63C1176.45 1288.83 1174.22 1288.83 1172 1288.63C1169.41 1288.61 1166.85 1288.13 1164.44 1287.19C1160.69 1286.01 1157.07 1284.44 1153.64 1282.51C1146.93 1278.82 1140.85 1274.08 1135.63 1268.47C1117.84 1247.34 1104.49 1222.85 1096.38 1196.45C1078.82 1146.32 1070.41 1093.45 1071.53 1040.35V1040.35Z" fill="#263238"/>
<path d="M1176.32 1213.91C1197.03 1213.91 1338.37 1113.62 1383.56 1032.6C1386.62 1027.02 1378.88 967.965 1372.58 895.585C1368.98 851.833 1366.09 802.859 1366.63 758.027C1366.63 748.844 1335.13 765.409 1335.13 765.409L1276.97 778.733L1084.68 823.025C1100.02 879.286 1108.42 937.211 1109.7 995.512C1109.51 1001.56 1108.85 1007.58 1107.72 1013.52C1107.62 1014.54 1107.62 1015.56 1107.72 1016.58C1101.06 1051.87 1142.83 1213.73 1176.32 1213.91Z" fill="#A07767"/>
<path d="M1107.72 1013.88C1107.62 1014.89 1107.62 1015.92 1107.72 1016.94C1117.26 1018.37 1126.89 1019.03 1136.53 1018.92C1325.94 1016.76 1352.59 776.392 1352.59 776.392L1277.69 778.732L1085.4 823.025C1100.74 879.286 1109.14 937.211 1110.42 995.512C1110.01 1001.7 1109.11 1007.84 1107.72 1013.88V1013.88Z" fill="#263238"/>
<path d="M1376 377.942C1417.23 473.729 1396.34 765.769 1332.78 837.429C1240.78 941.138 1074.41 968.325 982.408 854.174C892.384 743.443 926.953 363.358 999.333 296.02C1105.92 197.893 1315.32 236.604 1376 377.942Z" fill="#A07767"/>
<path d="M1151.48 581.758C1151.48 581.758 1153.1 582.838 1152.92 583.738C1150.94 603.364 1152.02 626.05 1169.48 633.792C1169.48 633.792 1169.48 635.052 1169.48 634.872C1147.33 630.011 1147.33 600.123 1151.48 581.758Z" fill="#263238"/>
<path d="M1170.56 562.493C1202.25 562.493 1200.63 625.871 1170.56 626.051C1140.49 626.231 1143.91 562.673 1170.56 562.493Z" fill="#263238"/>
<path d="M1037.33 581.938C1037.33 581.938 1035.7 581.938 1035.7 583.558C1035.7 603.364 1032.64 625.87 1014.64 631.992C1014.64 631.992 1014.64 633.252 1014.64 633.072C1036.61 630.011 1040.57 600.663 1037.33 581.938Z" fill="#263238"/>
<path d="M1020.22 560.873C988.709 557.632 984.207 621.01 1013.74 624.07C1043.26 627.131 1046.86 563.574 1020.22 560.873Z" fill="#263238"/>
<path d="M1196.49 534.045C1188.16 531.379 1179.98 528.254 1172 524.682C1162.93 522.671 1154.81 517.66 1148.95 510.459C1147.51 507.863 1146.97 504.859 1147.42 501.923C1147.88 498.986 1149.31 496.287 1151.47 494.254C1156.36 490.82 1162.09 488.773 1168.05 488.329C1174.01 487.886 1179.98 489.062 1185.32 491.733C1196.9 495.4 1206.72 503.225 1212.87 513.699C1214.17 516.156 1214.72 518.939 1214.45 521.705C1214.18 524.47 1213.11 527.097 1211.37 529.261C1209.63 531.425 1207.29 533.031 1204.64 533.881C1202 534.731 1199.16 534.788 1196.49 534.045Z" fill="#263238"/>
<path d="M996.631 528.104C1005.45 526.844 1013.38 524.323 1022.02 522.342C1031.27 521.46 1039.99 517.607 1046.86 511.36C1048.69 509.019 1049.68 506.135 1049.68 503.167C1049.68 500.199 1048.69 497.316 1046.86 494.975C1042.53 490.918 1037.18 488.106 1031.38 486.839C1025.58 485.571 1019.55 485.894 1013.92 487.773C1001.86 489.709 990.986 496.143 983.487 505.778C981.992 508.029 981.161 510.655 981.088 513.356C981.015 516.057 981.703 518.725 983.074 521.053C984.444 523.382 986.443 525.278 988.84 526.524C991.237 527.771 993.937 528.319 996.631 528.104V528.104Z" fill="#263238"/>
<path d="M1145.71 705.632C1140.48 713.317 1133.71 719.841 1125.85 724.798C1117.98 729.754 1109.17 733.037 1099.98 734.44C1091.97 735.522 1083.86 735.522 1075.85 734.44C1074.3 734.627 1072.73 734.627 1071.17 734.44H1067.03C1065.98 734.212 1065.02 733.652 1064.31 732.842C1063.6 732.032 1063.16 731.014 1063.07 729.939V729.939C1062.98 729.281 1062.98 728.616 1063.07 727.958V726.158C1063.07 711.033 1065.23 687.987 1065.23 687.987C1059.65 690.688 1031.02 702.571 1031.56 694.649C1035.21 626.287 1045.82 558.477 1063.25 492.273C1063.25 491.796 1063.44 491.338 1063.78 491C1064.11 490.662 1064.57 490.473 1065.05 490.473C1065.53 490.473 1065.99 490.662 1066.32 491C1066.66 491.338 1066.85 491.796 1066.85 492.273C1063.79 555.471 1049.75 618.308 1045.6 681.145C1055.85 676.837 1066.63 673.931 1077.65 672.503C1079.81 672.503 1072.79 716.975 1073.33 723.637C1085.77 725.245 1098.4 724.319 1110.47 720.915C1122.54 717.512 1133.79 711.7 1143.55 703.831C1145.35 702.031 1147.33 704.191 1145.71 705.632Z" fill="#263238"/>
<path d="M1085.04 727.419C1093.05 738.472 1103.78 747.277 1116.19 752.986C1123.08 755.821 1130.68 756.511 1137.97 754.966C1153.82 751.185 1154.54 736.961 1152.02 724.358C1150.66 717.751 1148.48 711.34 1145.53 705.272C1128.25 718.923 1107.05 726.683 1085.04 727.419V727.419Z" fill="#263238"/>
<path d="M1116.19 752.986C1123.08 755.821 1130.68 756.512 1137.97 754.966C1153.82 751.185 1154.54 736.961 1152.02 724.358C1143.7 724.421 1135.64 727.278 1129.15 732.47C1122.65 737.662 1118.08 744.888 1116.19 752.986V752.986Z" fill="#FF99BA"/>
<path d="M1363.4 598.683C1296.24 595.622 1288.31 472.648 1288.31 472.648C1288.31 472.648 1173.8 448.882 1160.66 361.378C1160.66 361.378 1048.31 426.735 962.605 391.806C876.901 356.876 899.948 260.37 910.391 240.024C920.834 219.678 967.287 260.73 967.287 260.73C967.287 260.73 975.029 206.715 989.973 200.953C1004.92 195.192 1019.5 229.941 1019.5 229.941C1088.84 210.894 1160.63 202.337 1232.5 204.554C1332.97 211.576 1378.52 315.105 1378.52 315.105C1378.52 315.105 1432.53 328.789 1447.66 367.319C1462.78 405.85 1405.89 600.663 1363.4 598.683Z" fill="#263238"/>
<path d="M1315.14 475.169C1225.12 483.271 1168.76 421.154 1159.4 335.45H1157.78C1157.78 415.032 1227.64 506.857 1315.86 479.49C1316.43 479.394 1316.95 479.075 1317.28 478.602C1317.62 478.13 1317.76 477.542 1317.66 476.969C1317.57 476.396 1317.25 475.885 1316.77 475.547C1316.3 475.209 1315.71 475.073 1315.14 475.169V475.169Z" fill="#263238"/>
<path d="M1376.54 313.485C1375.46 313.485 1374.91 314.745 1376.54 315.105C1401.02 327.889 1429.29 337.612 1445.85 361.198C1465.84 389.466 1459.72 425.476 1450.54 456.264C1435.41 503.977 1408.04 565.914 1363.39 592.562C1362.98 592.921 1362.71 593.413 1362.62 593.952C1362.54 594.491 1362.64 595.043 1362.92 595.513C1363.2 595.983 1363.63 596.342 1364.14 596.526C1364.66 596.71 1365.22 596.709 1365.73 596.523C1419.75 568.075 1452.52 488.493 1462.24 431.057C1473.04 367.68 1435.41 329.689 1376.54 313.485Z" fill="#263238"/>
<path d="M1061.63 382.804C1040.39 393.997 1016.49 399.159 992.53 397.731C968.566 396.303 945.45 388.338 925.692 374.702C880.14 339.952 892.383 286.298 914.709 242.186C915.789 240.025 912.548 237.504 911.108 239.485C881.58 278.015 876.719 338.152 913.809 373.802C950.899 409.452 1020.76 412.512 1065.23 388.206C1069.01 386.225 1065.41 380.644 1061.63 382.804Z" fill="#263238"/>
<path d="M1340.53 618.128C1340.53 618.128 1397.06 519.641 1441.17 538.906C1485.29 558.171 1448.56 697.169 1400.84 720.036C1394.92 723.374 1388.38 725.478 1381.62 726.223C1374.86 726.968 1368.02 726.337 1361.51 724.369C1355 722.401 1348.95 719.136 1343.74 714.771C1338.52 710.406 1334.25 705.031 1331.16 698.97L1340.53 618.128Z" fill="#A07767"/>
<path d="M1429.65 578.518C1430.55 578.518 1430.73 578.518 1429.65 579.778C1396.34 597.783 1380.86 630.732 1371.14 665.121C1372.86 661.484 1375.35 658.262 1378.43 655.677C1381.52 653.092 1385.12 651.205 1389.01 650.144C1392.89 649.084 1396.95 648.876 1400.92 649.534C1404.89 650.192 1408.67 651.702 1412.01 653.958C1412.01 653.958 1412.01 655.939 1412.01 655.759C1405.73 654.394 1399.18 654.993 1393.26 657.473C1387.33 659.952 1382.31 664.194 1378.88 669.623C1373.25 678.773 1368.61 688.489 1365.01 698.611C1363.75 701.852 1357.99 700.771 1358.89 696.99C1353.85 652.158 1382.66 587.16 1429.65 578.518Z" fill="#263238"/>
<path d="M962.245 1846.07C972.932 1857.02 980.008 1870.99 982.519 1886.08C985.03 1901.18 982.855 1916.69 976.289 1930.51C1001.78 1935.8 1024.64 1949.8 1040.93 1970.12C1067.75 2007.21 1021.3 2065.73 1021.3 2065.73C1046.59 2076.67 1067.99 2094.99 1082.7 2118.3C1104.84 2156.29 1066.49 2222.01 1066.49 2222.01C1084.14 2244.93 1092.95 2273.43 1091.34 2302.31C1083.96 2379.19 978.269 2431.77 911.291 2465.98C844.312 2500.19 623.211 2534.58 581.44 2545.38L358.719 2118.48C358.719 2118.48 614.569 1880.1 698.832 1851.11C769.231 1826.62 919.753 1805.74 962.245 1846.07Z" fill="#A07767"/>
<path d="M969.805 1925.29C888.062 1933.21 813.161 1964.72 736.64 1992.09C735.02 1992.09 736.64 1995.33 737.721 1994.61C813.522 1966.7 893.824 1954.1 970.705 1929.07C971.122 1928.88 971.461 1928.55 971.663 1928.14C971.864 1927.72 971.916 1927.25 971.81 1926.81C971.704 1926.36 971.445 1925.97 971.08 1925.69C970.714 1925.41 970.263 1925.27 969.805 1925.29V1925.29Z" fill="#263238"/>
<path d="M1016.98 2060.87C998.618 2064.51 980.82 2070.57 964.043 2078.87C945.678 2086.67 927.673 2094.59 910.028 2102.64C874.018 2118.96 838.009 2136.25 801.999 2154.49C800.558 2154.49 801.999 2157.91 803.079 2157.19C839.089 2140.75 875.459 2125.14 912.189 2110.38C930.194 2103 948.199 2095.79 967.464 2088.77C985.314 2083.1 1002.51 2075.56 1018.78 2066.27C1019.39 2065.95 1019.87 2065.43 1020.13 2064.79C1020.39 2064.16 1020.41 2063.45 1020.19 2062.79C1019.97 2062.14 1019.53 2061.59 1018.94 2061.24C1018.35 2060.88 1017.66 2060.75 1016.98 2060.87Z" fill="#263238"/>
<path d="M1064.87 2222.73C1048.32 2225.9 1032.46 2231.99 1018.06 2240.73L968.902 2263.78C936.133 2279.09 903.364 2294.39 870.055 2308.43C869.78 2308.54 869.542 2308.72 869.374 2308.96C869.206 2309.2 869.116 2309.49 869.116 2309.78C869.116 2310.08 869.206 2310.36 869.374 2310.61C869.542 2310.85 869.78 2311.03 870.055 2311.13C903.905 2296.91 938.114 2283.23 971.783 2268.82L1021.48 2247.22C1037.19 2242 1051.88 2234.08 1064.87 2223.81C1064.87 2223.81 1065.59 2222.55 1064.87 2222.73Z" fill="#263238"/>
<path d="M555.152 1944.37C538.757 1953.28 523.313 1963.84 509.059 1975.88C494.115 1987.22 479.531 1998.93 465.127 2010.63C436.499 2033.68 408.052 2057.26 381.224 2082.65C354.397 2108.04 328.289 2133.6 302.903 2159.89L284.898 2177.9L277.156 2182.94C266.173 2190.14 255.549 2197.52 245.467 2205.62C225.879 2221.5 207.354 2238.64 190.011 2256.94C189.842 2257.21 189.771 2257.54 189.809 2257.86C189.848 2258.18 189.993 2258.48 190.222 2258.71C190.45 2258.94 190.749 2259.08 191.07 2259.12C191.391 2259.16 191.716 2259.09 191.992 2258.92C210.507 2241.49 230.309 2225.48 251.228 2211.03L259.33 2205.44C249.428 2216.43 239.705 2227.77 230.702 2239.47C206.362 2270.51 183.992 2303.04 163.724 2336.88C162.824 2338.5 165.165 2339.76 166.245 2338.32C203.515 2278.36 256.269 2228.85 307.764 2180.6C359.258 2132.34 410.752 2078.51 463.687 2029C478.811 2014.77 494.295 2000.91 510.139 1987.58C526.557 1974.97 542.303 1961.51 557.313 1947.25C558.933 1945.45 556.952 1944.37 555.152 1944.37Z" fill="#263238"/>
</g>
</svg>
