<svg width="17" height="17" viewBox="0 0 17 17" fill="none" xmlns="http://www.w3.org/2000/svg">
<path d="M9.91634 9.2085C9.32606 9.2085 8.82433 9.0019 8.41113 8.5887C7.99794 8.17551 7.79134 7.67377 7.79134 7.0835C7.79134 6.49322 7.99794 5.99148 8.41113 5.57829C8.82433 5.16509 9.32606 4.9585 9.91634 4.9585C10.5066 4.9585 11.0084 5.16509 11.4215 5.57829C11.8347 5.99148 12.0413 6.49322 12.0413 7.0835C12.0413 7.67377 11.8347 8.17551 11.4215 8.5887C11.0084 9.0019 10.5066 9.2085 9.91634 9.2085ZM4.95801 11.3335C4.56842 11.3335 4.23504 11.1949 3.95784 10.9177C3.68065 10.6405 3.54181 10.3069 3.54134 9.91683V4.25016C3.54134 3.86058 3.68017 3.52719 3.95784 3.25C4.23551 2.9728 4.5689 2.83397 4.95801 2.8335H14.8747C15.2643 2.8335 15.5979 2.97233 15.8756 3.25C16.1532 3.52766 16.2918 3.86105 16.2913 4.25016V9.91683C16.2913 10.3064 16.1527 10.64 15.8756 10.9177C15.5984 11.1954 15.2647 11.334 14.8747 11.3335H4.95801ZM6.37467 9.91683H13.458C13.458 9.52725 13.5968 9.19386 13.8745 8.91666C14.1522 8.63947 14.4856 8.50063 14.8747 8.50016V5.66683C14.4851 5.66683 14.1517 5.52823 13.8745 5.25104C13.5973 4.97384 13.4585 4.64022 13.458 4.25016H6.37467C6.37467 4.63975 6.23608 4.97337 5.95888 5.25104C5.68169 5.5287 5.34806 5.6673 4.95801 5.66683V8.50016C5.34759 8.50016 5.68122 8.639 5.95888 8.91666C6.23655 9.19433 6.37515 9.52772 6.37467 9.91683ZM14.1663 14.1668H2.12467C1.73509 14.1668 1.4017 14.0282 1.12451 13.751C0.847313 13.4738 0.70848 13.1402 0.708008 12.7502V4.9585H2.12467V12.7502H14.1663V14.1668Z" fill="white"/>
</svg>
